HIERARCHY
ROOT Joint1
{
	OFFSET 0.000000 0.000000 0.000000
	CHANNELS 6 Xposition Yposition Zposition Xrotation Yrotation Zrotation
	JOINT Joint2
	{
		OFFSET -0.000000 0.000000 1.456275
		CHANNELS 6 Xposition Yposition Zposition Xrotation Yrotation Zrotation
		JOINT Joint3
		{
			OFFSET -0.000000 0.000002 1.471446
			CHANNELS 6 Xposition Yposition Zposition Xrotation Yrotation Zrotation
			JOINT Joint4
			{
				OFFSET 0.625745 0.000000 0.917755
				CHANNELS 6 Xposition Yposition Zposition Xrotation Yrotation Zrotation
				JOINT Joint5
				{
					OFFSET -0.629534 0.000001 0.940221
					CHANNELS 6 Xposition Yposition Zposition Xrotation Yrotation Zrotation
					JOINT Joint6
					{
						OFFSET -0.000001 0.113772 1.960660
						CHANNELS 6 Xposition Yposition Zposition Xrotation Yrotation Zrotation
						JOINT Joint7
						{
							OFFSET -0.669733 -0.113771 0.388340
							CHANNELS 6 Xposition Yposition Zposition Xrotation Yrotation Zrotation
							End Site
							{
								OFFSET 0.005509 0.005509 0.438980
							}
						}
					}
				}
			}
		}
	}
}
MOTION
Frames: 19
Frame Time: 0.041667
0.000000 0.000000 0.000000 -0.000000 1.019410 -0.009103 -0.000000 0.000000 1.456275 0.000000 -44.982653 0.000000 -0.000000 0.000002 1.471446 0.000000 -1.133459 -0.043686 0.625744 0.000000 0.917755 0.000004 135.020464 -0.000001 -0.629534 0.000001 0.940221 -0.000000 1.709736 0.007417 -0.000001 0.113772 1.960660 -88.332241 89.993514 -0.020405 -0.669733 -0.113771 0.388340 -0.705169 3.566198 134.963992 
0.000000 0.000000 0.000000 -0.000000 1.019410 -0.033658 -0.000000 0.000000 1.456275 0.000000 -44.985436 -0.000000 -0.000001 0.000002 1.471446 0.000000 -1.133460 -0.070790 0.625744 0.000000 0.917755 0.000004 135.026023 -0.000001 -0.629534 0.000001 0.940221 0.000000 1.709737 0.084394 -0.000001 0.113772 1.960660 -88.298705 90.033703 0.003792 -0.669733 -0.113771 0.388341 -0.705137 3.566198 134.962243 
0.000000 0.000000 0.000000 -0.000000 1.019410 -0.075443 -0.000000 -0.000000 1.456275 0.000000 -44.990179 -0.000000 -0.000000 0.000002 1.471446 -0.000000 -1.133460 -0.116913 0.625745 0.000000 0.917755 0.000004 135.035504 -0.000001 -0.629534 0.000001 0.940221 0.000000 1.709736 0.215384 0.000000 0.113772 1.960661 -88.302079 90.102087 0.001378 -0.669733 -0.113771 0.388341 -0.705085 3.566198 134.959279 
0.000000 0.000000 0.000000 -0.000000 1.019410 -0.135160 -0.000000 -0.000000 1.456275 0.000000 -44.996952 0.000000 -0.000000 0.000002 1.471446 -0.000000 -1.133459 -0.182829 0.625744 0.000000 0.917755 0.000004 135.049041 -0.000001 -0.629534 0.000001 0.940221 0.000000 1.709737 0.402591 -0.000001 0.113772 1.960660 -88.302994 90.199820 0.000657 -0.669733 -0.113771 0.388339 -0.705009 3.566197 134.955044 
0.000000 0.000000 0.000000 -0.000000 1.019410 -0.213512 -0.000000 0.000000 1.456275 0.000000 -45.005841 0.000000 -0.000000 0.000002 1.471446 0.000000 -1.133463 -0.269316 0.625744 0.000000 0.917755 0.000004 135.066813 -0.000001 -0.629534 0.000001 0.940221 -0.000000 1.709736 0.648218 -0.000002 0.113772 1.960660 -88.303343 90.328056 0.000380 -0.669733 -0.113771 0.388340 -0.704911 3.566198 134.949471 
0.000000 0.000000 0.000000 -0.000000 1.019410 -0.311203 -0.000000 0.000000 1.456275 0.000000 -45.016930 0.000000 -0.000001 0.000002 1.471446 0.000000 -1.133465 -0.377149 0.625744 0.000000 0.917755 0.000004 135.088970 -0.000001 -0.629533 0.000001 0.940221 0.000000 1.709736 0.954469 -0.000001 0.113772 1.960661 -88.303500 90.487944 0.000259 -0.669733 -0.113771 0.388340 -0.704788 3.566198 134.942545 
0.000000 0.000000 0.000000 -0.000000 1.019410 -0.428935 -0.000000 -0.000000 1.456275 -0.000000 -45.030279 0.000000 -0.000000 0.000002 1.471446 0.000000 -1.133460 -0.507105 0.625744 0.000000 0.917755 0.000004 135.115663 -0.000001 -0.629534 0.000001 0.940221 -0.000000 1.709736 1.323550 -0.000001 0.113772 1.960660 -88.303616 90.680631 0.000198 -0.669733 -0.113771 0.388340 -0.704639 3.566197 134.934171 
0.000000 0.000000 0.000000 -0.000000 1.019410 -0.567412 -0.000000 0.000000 1.456275 -0.000000 -45.046006 0.000000 -0.000000 0.000002 1.471446 -0.000000 -1.133460 -0.659959 0.625745 0.000000 0.917755 0.000004 135.147082 -0.000001 -0.629534 0.000001 0.940221 0.000000 1.709736 1.757663 -0.000000 0.113772 1.960660 -88.303684 90.907263 0.000134 -0.669733 -0.113771 0.388340 -0.704465 3.566197 134.924349 
0.000000 0.000000 0.000000 -0.000000 1.019410 -0.727337 -0.000000 -0.000000 1.456275 -0.000000 -45.064150 0.000000 -0.000000 0.000002 1.471445 0.000000 -1.133464 -0.836488 0.625744 0.000000 0.917755 0.000004 135.183350 -0.000001 -0.629534 0.000001 0.940221 -0.000000 1.709736 2.259013 -0.000001 0.113772 1.960660 -88.303725 91.169003 0.000106 -0.669733 -0.113771 0.388341 -0.704263 3.566197 134.912984 
0.000000 0.000000 0.000000 -0.000000 1.019410 -0.909413 -0.000000 0.000000 1.456275 0.000000 -45.084812 0.000000 -0.000000 0.000002 1.471446 0.000000 -1.133462 -1.037467 0.625744 0.000000 0.917755 0.000003 135.224645 -0.000001 -0.629533 0.000001 0.940221 -0.000000 1.709736 2.829804 -0.000001 0.113772 1.960661 -88.303752 91.466997 0.000081 -0.669733 -0.113771 0.388340 -0.704033 3.566196 134.900047 
0.000000 0.000000 0.000000 -0.000000 1.019410 -1.114343 -0.000000 0.000000 1.456275 0.000000 -45.108065 -0.000000 -0.000000 0.000002 1.471446 0.000000 -1.133457 -1.263674 0.625745 0.000000 0.917755 0.000004 135.271132 -0.000001 -0.629534 0.000001 0.940221 -0.000000 1.709736 3.472241 -0.000000 0.113772 1.960660 -88.303780 91.802394 0.000062 -0.669733 -0.113771 0.388339 -0.703774 3.566196 134.885513 
0.000000 0.000000 0.000000 -0.000000 1.019410 -1.342830 -0.000000 0.000000 1.456275 -0.000000 -45.133999 -0.000000 -0.000000 0.000002 1.471446 0.000000 -1.133459 -1.515882 0.625744 0.000000 0.917755 0.000003 135.322945 -0.000001 -0.629534 0.000001 0.940221 0.000000 1.709736 4.188526 -0.000001 0.113772 1.960660 -88.303793 92.176340 0.000048 -0.669733 -0.113771 0.388339 -0.703486 3.566196 134.869284 
0.000000 0.000000 0.000000 -0.000000 1.019410 -1.595577 -0.000000 0.000000 1.456275 -0.000000 -45.162676 0.000000 -0.000001 0.000002 1.471446 -0.000000 -1.133460 -1.794870 0.625745 0.000000 0.917755 0.000004 135.380264 -0.000001 -0.629533 0.000001 0.940221 0.000000 1.709736 4.980865 -0.000000 0.113772 1.960660 -88.303814 92.589997 0.000043 -0.669733 -0.113771 0.388340 -0.703168 3.566195 134.851334 
0.000000 0.000000 0.000000 -0.000000 1.019410 -1.873288 -0.000000 -0.000000 1.456275 -0.000000 -45.194184 0.000000 -0.000000 0.000002 1.471446 -0.000000 -1.133457 -2.101413 0.625744 0.000000 0.917755 0.000004 135.443252 -0.000001 -0.629534 0.000001 0.940221 0.000000 1.709736 5.851463 -0.000001 0.113772 1.960660 -88.303821 93.044512 0.000038 -0.669733 -0.113771 0.388339 -0.702817 3.566194 134.831623 
0.000000 0.000000 0.000000 -0.000000 1.019410 -2.176665 -0.000000 -0.000000 1.456275 0.000000 -45.228615 0.000000 -0.000000 0.000002 1.471446 -0.000000 -1.133459 -2.436287 0.625744 0.000000 0.917755 0.000004 135.512046 -0.000001 -0.629533 0.000001 0.940221 -0.000001 1.709736 6.802521 -0.000000 0.113772 1.960660 -88.303834 93.541032 0.000033 -0.669733 -0.113771 0.388340 -0.702435 3.566192 134.810080 
0.000000 0.000000 0.000000 -0.000000 1.019410 -2.506411 -0.000000 0.000000 1.456275 0.000000 -45.266034 0.000000 -0.000000 0.000002 1.471445 -0.000000 -1.133463 -2.800268 0.625745 0.000000 0.917755 0.000003 135.586837 -0.000001 -0.629533 0.000001 0.940221 -0.000000 1.709736 7.836242 -0.000001 0.113772 1.960660 -88.303834 94.080706 0.000029 -0.669733 -0.113771 0.388340 -0.702019 3.566191 134.786653 
0.000000 0.000000 0.000000 -0.000000 1.019410 -2.862923 -0.000000 0.000000 1.456275 -0.000000 -45.306489 0.000000 -0.000000 0.000002 1.471446 0.000000 -1.133459 -3.193793 0.625744 0.000000 0.917755 0.000004 135.667692 -0.000001 -0.629534 0.000001 0.940221 0.000000 1.709737 8.953875 -0.000000 0.113772 1.960660 -88.303841 94.664195 0.000027 -0.669733 -0.113771 0.388339 -0.701569 3.566189 134.761340 
0.000000 0.000000 0.000000 -0.000000 1.019410 -3.245369 -0.000000 0.000000 1.456275 -0.000000 -45.349885 -0.000000 -0.000000 0.000002 1.471446 0.000000 -1.133466 -3.615947 0.625745 0.000000 0.917755 0.000004 135.754436 -0.000001 -0.629534 0.000001 0.940221 -0.000000 1.709737 10.152809 -0.000000 0.113772 1.960660 -88.303848 95.290114 0.000026 -0.669733 -0.113771 0.388339 -0.701087 3.566188 134.734183 
0.000000 0.000000 0.000000 -0.000000 1.019410 -3.652613 -0.000000 0.000000 1.456275 -0.000000 -45.396091 0.000000 -0.000000 0.000002 1.471446 0.000000 -1.133463 -4.065472 0.625745 0.000000 0.917755 0.000003 135.846807 -0.000001 -0.629534 0.000001 0.940221 -0.000001 1.709737 11.429481 -0.000001 0.113772 1.960660 -88.303855 95.956624 0.000021 -0.669733 -0.113771 0.388340 -0.700573 3.566185 134.705250 
